<svg width="280" height="224" xmlns="http://www.w3.org/2000/svg" clip-rule="evenodd">
  <path fill="#25c2a0" d="M66.668 31.627c0-1.456-.576-2.853-1.606-3.883-1.03-1.03-2.425-1.607-3.88-1.607H28.05c-1.457 0-2.853.578-3.882 1.607-1.03 1.03-1.606 2.427-1.606 3.883v160.745c0 1.457.58 2.854 1.617 3.883 1.03 1.03 2.43 1.608 3.88 1.608h33.12c1.462 0 2.86-.567 3.882-1.604 1.037-1.03 1.615-2.42 1.615-3.88V31.62h-.01zm63.6 0c0-1.456-.58-2.853-1.61-3.883-1.028-1.03-2.424-1.607-3.88-1.607H91.636c-1.466 0-2.862.578-3.885 1.607-1.03 1.03-1.61 2.427-1.61 3.883v160.745c0 1.457.576 2.854 1.606 3.883 1.027 1.03 2.424 1.608 3.88 1.608h33.13c1.45 0 2.85-.567 3.88-1.604 1.026-1.03 1.603-2.42 1.603-3.88V31.62h.04zm63.584 0c0-1.456-.578-2.853-1.608-3.883-1.03-1.03-2.425-1.607-3.88-1.607H155.23c-1.458 0-2.854.578-3.883 1.607-1.03 1.03-1.608 2.427-1.608 3.883v160.745c0 1.457.57 2.854 1.6 3.883 1.03 1.03 2.424 1.608 3.88 1.608h33.134c1.456 0 2.852-.567 3.88-1.604 1.03-1.03 1.61-2.42 1.61-3.88V31.62zm63.585 0c0-3.033-2.457-5.49-5.49-5.49H218.8c-3.03 0-5.49 2.457-5.49 5.49v63.348c0 3.032 2.46 5.49 5.49 5.49h33.135c3.032 0 5.49-2.458 5.49-5.49V31.627h.012zm0 97.398c0-3.032-2.457-5.49-5.49-5.49H218.8c-3.03 0-5.49 2.458-5.49 5.49v63.348c0 3.042 2.46 5.49 5.49 5.49h33.135c3.032 0 5.49-2.448 5.49-5.49v-63.338l.012-.01z"/>
</svg>
